<?xml version="1.0" standalone="no"?>
<!DOCTYPE svg PUBLIC "-//W3C//DTD SVG 20010904//EN"
 "http://www.w3.org/TR/2001/REC-SVG-20010904/DTD/svg10.dtd">
<svg version="1.0" xmlns="http://www.w3.org/2000/svg"
 width="700.000000pt" height="700.000000pt" viewBox="0 0 700.000000 700.000000"
 preserveAspectRatio="xMidYMid meet">
<metadata>
Created by potrace 1.14, written by Peter Selinger 2001-2017
</metadata>
<g transform="translate(0.000000,700.000000) scale(0.100000,-0.100000)"
fill="#000000" stroke="none">
<path d="M1570 6119 c-85 -8 -102 -11 -151 -32 -118 -49 -212 -155 -249 -278
-20 -66 -20 -95 -17 -2055 1 -1094 5 -1999 9 -2011 18 -59 68 -142 113 -188
100 -102 192 -135 376 -135 l117 0 6 -30 c3 -17 18 -56 32 -88 89 -188 248
-328 450 -393 101 -32 273 -36 380 -9 254 65 427 226 524 487 l12 32 1147 1
c630 0 1164 3 1186 5 63 8 179 71 230 127 26 26 61 79 78 116 l32 67 0 2036 0
2035 -38 76 c-60 123 -161 202 -292 230 -55 12 -3810 18 -3945 7z"/>
</g>
</svg>
